<svg width="145" height="56" viewBox="0 0 145 56" fill="none" xmlns="http://www.w3.org/2000/svg">
<path d="M12.0376 21.4868C11.7259 21.2334 11.4045 21.0581 11.0734 20.9606C10.7423 20.8437 10.3332 20.7853 9.84626 20.7853C8.83339 20.7853 8.03478 21.0191 7.45044 21.4868C6.86609 21.9544 6.57391 22.578 6.57391 23.3574C6.57391 24.3317 6.87583 25.1696 7.47965 25.8711C8.08348 26.5726 9.13531 27.391 10.6351 28.3264C11.9986 29.2032 13.0797 30.1483 13.8783 31.1616C14.6769 32.1749 15.0762 33.344 15.0762 34.6691C15.0957 35.8772 14.7937 36.9879 14.1704 38.0012C13.5471 38.995 12.6024 39.7939 11.3363 40.398C10.0897 41.0021 8.5607 41.3041 6.74922 41.3041C5.28835 41.3041 3.88591 41.1482 2.54191 40.8364C1.21739 40.5246 0.370087 40.2129 0 39.9011L0.818087 35.3998H3.73983L3.88591 38.5858C4.58713 39.1898 5.50261 39.4919 6.63235 39.4919C7.97635 39.4919 8.95026 39.2288 9.55409 38.7027C10.1774 38.1571 10.489 37.4361 10.489 36.5397C10.489 35.6629 10.2066 34.8932 9.64174 34.2306C9.09635 33.5486 8.14191 32.7789 6.77844 31.9215C5.33704 31.0057 4.2073 30.0217 3.38922 28.9694C2.57113 27.9172 2.16209 26.6895 2.16209 25.2865C2.16209 23.299 2.90226 21.7596 4.38261 20.6684C5.88244 19.5576 7.82052 19.0023 10.1969 19.0023C12.7875 19.0023 14.6866 19.353 15.8943 20.0545L15.1346 24.3512H12.4466L12.0376 21.4868Z" fill="white"/>
<path d="M26.5718 29.4371C26.0265 28.5992 25.5492 27.9172 25.1402 27.391C24.7312 26.8649 24.3903 26.6019 24.1176 26.6019C23.5917 26.6019 23.0658 26.9234 22.5399 27.5664C22.0139 28.2095 21.5757 29.0961 21.2251 30.2263C20.8939 31.3565 20.7284 32.6133 20.7284 33.9968C20.7284 35.6531 20.9232 36.832 21.3127 37.5335C21.7218 38.235 22.3743 38.5858 23.2703 38.5858C24.1079 38.5858 24.8091 38.4299 25.3739 38.1181C25.9583 37.7869 26.4647 37.3387 26.8932 36.7736L27.799 38.235C27.312 38.995 26.5134 39.6965 25.4032 40.3395C24.2929 40.9631 22.9781 41.2749 21.4588 41.2749C19.7252 41.2749 18.3715 40.6805 17.3976 39.4919C16.4237 38.3032 15.9367 36.5885 15.9367 34.3476C15.9367 32.6912 16.2776 31.1031 16.9593 29.5832C17.6605 28.0438 18.7026 26.7967 20.0856 25.8419C21.4685 24.8676 23.1437 24.3804 25.111 24.3804C25.7538 24.3804 26.4063 24.4292 27.0685 24.5266C27.7503 24.624 28.3152 24.7604 28.7632 24.9358L27.5945 29.4663L26.5718 29.4371Z" fill="white"/>
<path d="M41.9336 37.7674C41.9141 37.8648 41.9044 37.9915 41.9044 38.1473C41.9044 38.615 42.0991 38.8488 42.4887 38.8488C42.8198 38.8488 43.2484 38.6345 43.7743 38.2058L44.1833 39.1996C43.9106 39.6283 43.4237 40.0862 42.7224 40.5734C42.0212 41.041 41.1934 41.2749 40.239 41.2749C39.5378 41.2749 38.9729 41.1287 38.5444 40.8364C38.1158 40.5441 37.8821 40.1252 37.8431 39.5796V39.4042C36.6355 40.6513 35.1844 41.2749 33.4898 41.2749C31.7951 41.2749 30.5291 40.7098 29.6915 39.5796C28.8539 38.4494 28.4351 37.0074 28.4351 35.2537C28.4351 33.3635 28.8052 31.5903 29.5454 29.934C30.3051 28.2582 31.4251 26.9136 32.9054 25.9004C34.3858 24.8871 36.1583 24.3804 38.223 24.3804C38.7294 24.3804 39.2943 24.4486 39.9176 24.585C40.5604 24.702 41.1155 24.8384 41.583 24.9943L43.7743 24.3804L41.9336 37.7674ZM38.895 26.4557C38.4664 26.3778 38.1353 26.3388 37.9016 26.3388C36.8108 26.3388 35.9148 26.7772 35.2136 27.6541C34.5318 28.531 34.0449 29.6319 33.7527 30.957C33.4605 32.282 33.3144 33.6558 33.3144 35.0783C33.3144 36.2475 33.4995 37.1633 33.8696 37.8258C34.2591 38.4883 34.7851 38.8196 35.4473 38.8196C36.0706 38.8196 36.6939 38.5273 37.3172 37.9427L38.895 26.4557Z" fill="white"/>
<path d="M51.248 27.7418C51.9103 26.709 52.6991 25.8906 53.6146 25.2865C54.5301 24.6825 55.5332 24.3804 56.624 24.3804C59.1562 24.3804 60.4223 25.8224 60.4223 28.7064C60.4223 29.2714 60.1885 30.957 59.721 33.763C59.6821 34.0553 59.6042 34.5132 59.4873 35.1367C59.2146 36.5787 59.0783 37.553 59.0783 38.0597C59.0783 38.5858 59.2633 38.8488 59.6334 38.8488C59.7892 38.8488 59.9548 38.8099 60.1301 38.7319C60.3249 38.6345 60.5878 38.4591 60.9189 38.2058L61.328 39.1996C60.9969 39.6478 60.4807 40.1057 59.7795 40.5734C59.0783 41.041 58.1823 41.2749 57.0915 41.2749C55.9617 41.2749 55.2021 41.0508 54.8125 40.6026C54.4229 40.1544 54.2282 39.5796 54.2282 38.8781C54.2282 38.3519 54.3937 37.2607 54.7249 35.6044L54.9002 34.6691C55.3287 32.2333 55.5429 30.4698 55.5429 29.3786C55.5429 28.5407 55.4553 27.9659 55.28 27.6541C55.1047 27.3423 54.8125 27.1864 54.4035 27.1864C53.8386 27.1864 53.225 27.5274 52.5628 28.2095C51.9005 28.872 51.3356 29.7001 50.8682 30.6939L49.4657 40.9826H44.937L46.7777 27.2157L45.2584 26.3973L45.4922 25.1404L50.7513 24.3804L51.4817 24.7312L51.248 27.7418Z" fill="white"/>
<path d="M75.8415 37.7381C75.822 37.8356 75.8123 37.972 75.8123 38.1473C75.8123 38.615 75.9876 38.8488 76.3382 38.8488C76.6498 38.8488 77.0881 38.6345 77.653 38.2058L78.062 39.1996C77.614 39.7062 77.0784 40.1836 76.4551 40.6318C75.8512 41.0605 75.0624 41.2749 74.0885 41.2749C73.3288 41.2749 72.7542 41.0995 72.3646 40.7487C71.9751 40.3785 71.7316 39.8426 71.6342 39.1411L71.605 38.8781C71.1375 39.5406 70.5045 40.1057 69.7058 40.5734C68.9072 41.041 67.9625 41.2749 66.8718 41.2749C65.1966 41.2749 63.9598 40.7195 63.1612 39.6088C62.3625 38.4786 61.9632 37.0269 61.9632 35.2537C61.9632 33.344 62.3236 31.5611 63.0443 29.9047C63.765 28.2484 64.846 26.9136 66.2874 25.9004C67.7483 24.8871 69.5305 24.3804 71.6342 24.3804C72.0822 24.3804 72.5789 24.4292 73.1243 24.5266L73.7963 19.8207L71.5758 19.2069L71.8387 18.0377L77.9452 17.4239L78.7048 17.8331L75.8415 37.7381ZM72.8029 26.6019C72.277 26.4265 71.7705 26.3388 71.2836 26.3388C69.6864 26.3388 68.5372 27.2157 67.8359 28.9694C67.1347 30.7232 66.7841 32.7594 66.7841 35.0783C66.7841 36.2475 66.9594 37.1633 67.31 37.8258C67.6801 38.4883 68.1865 38.8196 68.8293 38.8196C69.2968 38.8196 69.7351 38.6832 70.1441 38.4104C70.5726 38.1181 70.933 37.7479 71.2252 37.2997L72.8029 26.6019Z" fill="white"/>
<path d="M83.856 37.7674C83.8365 37.8453 83.8267 37.9622 83.8267 38.1181C83.8267 38.6053 84.0118 38.8488 84.3819 38.8488C84.5377 38.8488 84.7033 38.8099 84.8786 38.7319C85.0734 38.6345 85.3461 38.4591 85.6967 38.2058L86.0765 39.1996C85.0636 40.5831 83.7391 41.2749 82.1029 41.2749C81.2654 41.2749 80.5544 41.119 79.9701 40.8072C79.4052 40.4954 79.113 40.0083 79.0935 39.3457C79.0935 39.2288 79.1325 38.8586 79.2104 38.235L81.6647 19.8207L79.7655 19.2069L80.0577 18.0377L85.7843 17.4239L86.5147 17.8331L83.856 37.7674Z" fill="white"/>
<path d="M99.5039 37.9427C98.978 38.7806 98.1405 39.5698 96.9912 40.3103C95.842 41.0313 94.4591 41.3918 92.8424 41.3918C91.401 41.3918 90.2128 41.0897 89.2778 40.4857C88.3429 39.8621 87.6612 39.0534 87.2326 38.0597C86.8041 37.0659 86.5899 35.9941 86.5899 34.8445C86.5899 32.8569 86.9892 31.0642 87.7878 29.4663C88.6059 27.8684 89.7161 26.6213 91.1185 25.725C92.5405 24.8091 94.1085 24.3512 95.8225 24.3512C97.4198 24.3512 98.5982 24.702 99.3578 25.4035C100.118 26.105 100.497 27.0111 100.497 28.1218C100.497 29.5442 100.03 30.7329 99.0949 31.6877C98.1599 32.623 97.0107 33.3148 95.6472 33.763C94.3032 34.2112 92.969 34.4547 91.6445 34.4937C91.625 35.9357 91.849 37.0269 92.3165 37.7674C92.8034 38.5078 93.4754 38.8781 94.3325 38.8781C95.3259 38.8781 96.1537 38.654 96.8159 38.2058C97.4977 37.7576 98.0918 37.1925 98.5982 36.5105L99.5039 37.9427ZM94.7999 26.3388C93.7871 26.3388 93.0274 26.9916 92.521 28.2971C92.034 29.6027 91.7419 31.0934 91.6445 32.7692C92.2483 32.7302 92.8911 32.5451 93.5728 32.2138C94.2545 31.8631 94.8292 31.3662 95.2966 30.7232C95.7641 30.0801 95.9978 29.3299 95.9978 28.4725C95.9978 27.05 95.5985 26.3388 94.7999 26.3388Z" fill="white"/>
<path d="M106.263 41.2749C105.153 41.2749 104.325 41.0215 103.78 40.5149C103.234 40.0083 102.962 39.1411 102.962 37.9135V26.6895H100.858V25.3742C100.955 25.3547 101.228 25.2865 101.676 25.1696C102.124 25.0527 102.426 24.9455 102.582 24.8481C102.893 24.6727 103.137 24.322 103.312 23.7959C103.468 23.4256 103.653 22.8313 103.867 22.0129C104.082 21.1945 104.208 20.7073 104.247 20.5514H105.971L106.029 24.7604H110.909V26.6895H106.029V35.6629C106.029 36.7736 106.059 37.553 106.117 38.0012C106.195 38.4494 106.341 38.7417 106.555 38.8781C106.789 39.0145 107.179 39.0827 107.724 39.0827C108.25 39.0827 108.825 39.0145 109.448 38.8781C110.091 38.7417 110.587 38.5955 110.938 38.4396L111.376 39.7549C110.909 40.1057 110.149 40.4467 109.097 40.778C108.065 41.1092 107.12 41.2749 106.263 41.2749Z" fill="white"/>
<path d="M120.353 41.3041C117.996 41.3041 116.194 40.5344 114.947 38.995C113.72 37.4556 113.107 35.3998 113.107 32.8277C113.107 31.1324 113.428 29.6417 114.071 28.3556C114.714 27.0695 115.61 26.0757 116.759 25.3742C117.928 24.6727 119.252 24.322 120.732 24.322C122.544 24.322 123.946 24.8286 124.94 25.8419C125.953 26.8357 126.488 28.2679 126.547 30.1386C126.547 31.3272 126.479 32.2333 126.342 32.8569H116.291C116.33 34.786 116.778 36.3449 117.635 37.5335C118.492 38.7027 119.71 39.2873 121.288 39.2873C122.067 39.2873 122.875 39.1509 123.713 38.8781C124.57 38.5858 125.232 38.2448 125.699 37.8551L126.255 39.1411C125.69 39.7257 124.852 40.2324 123.742 40.661C122.632 41.0897 121.502 41.3041 120.353 41.3041ZM123.333 31.3077C123.391 30.8985 123.42 30.4796 123.42 30.0509C123.401 28.7843 123.128 27.7905 122.602 27.0695C122.096 26.3291 121.288 25.9588 120.177 25.9588C119.048 25.9588 118.142 26.368 117.46 27.1864C116.798 28.0049 116.418 29.3786 116.321 31.3077H123.333Z" fill="white"/>
<path d="M135.369 41.3041C134.2 41.3041 133.129 41.0118 132.155 40.4272C131.181 39.8426 130.402 38.9463 129.817 37.7381C129.253 36.53 128.97 35.0393 128.97 33.2661C128.97 31.6098 129.311 30.0996 129.993 28.7356C130.674 27.3716 131.648 26.2998 132.914 25.5204C134.2 24.7215 135.71 24.322 137.443 24.322C138.437 24.322 139.342 24.4292 140.16 24.6435V19.1777L137.18 18.8269V17.5701L142.439 17.0439H142.527L143.17 17.5116V39.4919H144.864V40.8364C144.241 40.9728 143.696 41.08 143.228 41.1579C142.78 41.2359 142.303 41.2749 141.797 41.2749C141.29 41.2749 140.93 41.1872 140.716 41.0118C140.501 40.8364 140.394 40.4662 140.394 39.9011V38.9658C139.849 39.6283 139.128 40.1836 138.232 40.6318C137.356 41.08 136.401 41.3041 135.369 41.3041ZM136.537 39.2288C137.297 39.2288 138.008 39.0632 138.67 38.7319C139.333 38.3812 139.829 37.9817 140.16 37.5335V26.8357C140.005 26.6019 139.634 26.3973 139.05 26.2219C138.485 26.027 137.881 25.9296 137.239 25.9296C135.719 25.9296 134.502 26.5142 133.586 27.6833C132.69 28.833 132.242 30.616 132.242 33.0323C132.242 35.1367 132.642 36.6956 133.44 37.7089C134.239 38.7222 135.271 39.2288 136.537 39.2288Z" fill="white"/>
<path fill-rule="evenodd" clip-rule="evenodd" d="M80.0051 14.553C81.5998 14.1661 82.7828 12.745 82.7828 11.051C82.7828 9.0594 81.1477 4.86914 79.1306 4.86914C77.1136 4.86914 75.4785 9.0594 75.4785 11.051C75.4785 12.6504 76.5331 14.0067 77.9932 14.4787L78.2388 13.4399L78.4791 12.423L79.2525 9.15161L79.7164 12.4811L79.85 13.4399L80.0051 14.553Z" fill="white"/>
</svg>
